<svg width="200" height="80" viewBox="0 0 200 80" fill="none" xmlns="http://www.w3.org/2000/svg">
<g clip-path="url(#clip0_169_1870)">
<path d="M14.9517 57.7087C14.6985 57.3246 14.5528 56.8668 14.6321 56.4488C14.5528 56.4753 14.4656 56.4962 14.3937 56.5207C14.1951 56.581 14.0022 56.64 13.8037 56.6947C13.4306 56.7266 13.2585 56.9669 13.2923 57.4174C13.5652 57.576 13.862 57.6497 14.1743 57.6633C14.4336 57.6688 14.6905 57.6878 14.9517 57.7087ZM14.7114 21.4434C15.0371 22.0654 15.3229 22.616 15.2965 21.621C15.2756 21.6155 15.2565 21.621 15.2356 21.6155C15.0445 21.5682 14.8706 21.5098 14.7114 21.4434ZM17.8771 28.7311C17.6897 28.0557 17.6516 27.2991 18.0683 26.9003C17.5459 27.1006 16.9798 27.4055 16.337 27.1142C15.8601 26.8886 15.4815 27.0005 15.1035 27.1326C15.3358 27.2991 15.495 27.5112 15.487 27.8025C15.495 27.564 16.9798 28.2733 17.8771 28.7311ZM21.9297 65.1759C21.9899 65.0776 22.0563 64.9848 22.1227 64.9055C21.3845 64.9055 20.6507 64.8981 19.9126 64.8717C19.6213 64.8656 19.3355 64.8582 19.0442 64.8453C19.177 64.9584 19.3091 65.0647 19.4418 65.1833C19.7479 65.4562 19.4812 65.5281 20.0927 65.541C20.4049 65.5545 20.7146 65.541 21.0348 65.541C21.6648 65.541 21.6457 65.6473 21.9297 65.1759ZM23.6548 33.3749C24.7297 34.1235 23.7476 33.5734 24.6031 33.5734C23.7347 33.5734 22.9118 31.9085 22.1964 32.0013C20.4578 32.2207 20.5032 30.5491 19.2562 30.0119C19.1106 30.125 18.9176 30.184 18.732 30.1441C18.6054 30.2578 18.4333 30.3106 18.2213 30.2369C17.6651 30.0592 16.9534 29.8663 16.5508 29.4213C16.1059 28.937 15.648 29.3346 15.1773 29.1036C14.6186 28.8239 14.5129 28.7784 14.3009 28.2278C14.3273 28.1147 14.28 28.0483 14.1816 28.0164C14.0341 28.3132 13.6844 28.4607 13.3513 28.2868C12.623 27.9027 11.1548 26.5635 10.4394 28.0028C10.1672 28.5326 10.0608 28.6064 9.45732 28.7047C9.15311 28.752 8.22386 30.6812 8.25827 30.927C8.46231 32.3326 6.75008 33.4997 5.66227 32.9754C5.60327 33.0099 5.54304 33.0492 5.46929 33.0756C5.15155 33.1684 5.40292 34.1179 5.21178 34.4412C5.16446 34.5211 7.48021 34.5869 8.00998 34.5494C8.8409 34.4885 9.13958 33.9778 9.92318 33.9575C11.1696 33.925 12.411 34.3964 13.4779 33.3878C13.7299 33.1494 14.1951 33.1494 14.5074 33.2348C15.1828 33.4204 16.3898 36.1135 16.9743 34.0651C17.0542 33.7793 17.4057 33.5206 17.7106 33.6453C17.9699 33.7529 18.6718 34.2562 18.8777 34.1106C19.0577 33.984 19.2962 34.0233 19.4812 34.1106C20.132 34.4228 20.1775 34.1634 20.6962 33.6189C20.8812 33.4278 21.1934 33.3934 21.419 33.5261C21.6039 33.6337 21.7312 33.8512 21.9426 33.8912C22.0163 33.9041 22.0698 33.8119 22.1356 33.8248C22.2757 33.8512 22.3875 33.984 22.4742 34.0897C22.7336 33.7584 23.0648 32.9564 23.6548 33.3749ZM26.217 27.7042C26.1697 27.6433 26.1224 27.5849 26.0959 27.4977C25.6719 26.2513 24.3591 27.7496 23.6948 27.5849C23.3696 27.5038 21.167 26.4971 21.1541 26.5899C21.0613 27.159 20.73 27.411 20.1984 27.5849C19.9126 27.6833 19.574 27.6968 19.2691 27.7306C18.9569 27.7625 19.0442 28.2942 19.177 28.7256C20.1191 28.8903 20.6163 29.3211 21.1068 30.0193C21.591 29.5012 22.1546 29.8128 22.7262 29.4821C22.9775 29.3291 23.3881 29.2554 23.6819 29.3346C23.7949 29.3684 24.7488 29.7599 24.6898 29.4877C24.412 28.3396 25.2933 27.7042 26.217 27.7042ZM26.5538 26.2439C26.6466 26.0054 26.8525 25.9126 27.0719 25.9317C26.3227 25.2888 25.7647 24.4469 25.246 23.5785C24.9891 23.1532 25.1876 22.4648 25.4187 21.8404C25.3941 21.8195 25.3597 21.814 25.3406 21.7931C25.0155 21.5227 24.2381 20.7796 24.0863 20.4275C23.5546 19.2395 20.2703 20.3273 19.5611 21.3432C19.3564 21.6345 18.8856 21.782 18.6183 21.4624C19.1296 22.0654 17.4248 22.1717 16.4691 22.1981C16.3579 23.2724 15.7808 23.9761 14.3463 23.2134C13.9813 23.021 13.5044 22.7162 13.4779 22.2454C13.3194 22.4304 13.2321 22.4913 12.9617 22.6369C12.3373 22.9547 10.2938 23.0948 10.0817 23.9361C9.96804 24.3866 10.6853 25.7731 11.3287 25.5212C12.0042 25.2563 12.8007 25.2827 13.457 25.6668C13.7299 25.826 17.7235 25.767 17.8771 25.5949C18.0228 25.4284 18.2551 25.4019 18.4542 25.4419C19.1972 25.5875 19.7541 25.9053 20.1056 25.137C20.3576 24.5796 21.0478 24.8519 21.167 25.3282C21.6248 25.3362 22.1091 25.4947 22.4877 25.7068C23.0574 26.0319 23.5356 26.6163 24.1791 26.0927C24.3647 25.9391 24.5896 25.8807 24.817 25.7934C25.3941 25.5611 26.056 25.8205 26.5538 26.2439ZM28.2925 52.6753C28.7823 51.8659 28.6766 50.5851 28.6047 50.0553C28.459 49.9816 28.3115 49.9158 28.1597 49.8568C28.054 50.9311 27.649 52.2574 26.858 52.9138C26.2945 53.3845 25.6719 53.623 25.0819 54.0409C24.9018 54.1601 24.2055 54.6045 23.782 55.0095C24.3591 54.9167 25.021 54.7636 25.6381 54.7636C25.7247 54.7636 25.7985 54.7766 25.8704 54.7901C25.9103 54.7311 25.9632 54.6708 26.0431 54.618C26.9398 54.02 27.7018 53.6439 28.2925 52.6753ZM29.7189 34.349C29.9236 34.0706 30.0047 33.7928 29.891 33.5261C29.494 32.6386 29.0361 32.5385 28.5309 31.8083C27.9803 31.0143 27.3976 30.184 26.9852 29.2947C26.866 29.2554 26.7468 29.189 26.654 29.0489C26.3682 28.8504 26.1088 28.8713 25.863 29.1152C25.8784 29.2683 25.8968 29.4139 25.9177 29.567C25.9368 29.8054 25.9177 30.0248 25.7911 30.2369C25.5262 30.6886 24.9018 30.774 24.431 30.7549C24.0924 30.7476 23.8275 30.6886 23.4963 30.6019C23.3826 30.5693 23.3242 30.5491 23.2977 30.5355C23.3033 30.5564 23.2898 30.5884 23.1767 30.6492C22.9247 30.7685 22.5996 30.742 22.3347 30.774C21.8504 30.8478 22.162 30.9934 22.5068 31.0063C22.8319 31.0272 22.9984 31.0272 23.2633 31.2128C23.9467 31.6836 24.6898 32.0468 25.3996 32.4647C26.1033 32.8771 26.249 33.6453 26.0634 34.3091C26.0898 34.29 26.1168 34.2636 26.1353 34.2163C26.1961 34.0971 26.2699 33.9514 26.3682 33.8592C26.6196 33.6189 26.9053 33.5071 27.2575 33.5544C27.5623 33.5925 27.8401 33.7719 28.094 33.9514C28.266 34.0651 28.4381 34.1954 28.6176 34.2956C28.9224 34.4621 28.7294 34.3355 28.7294 34.3355C28.9544 33.8647 29.494 33.9987 29.7189 34.349ZM32.4851 53.7158C32.9166 52.1781 32.5515 51.7202 31.6696 51.408C31.6751 51.9716 31.6831 52.5278 31.3365 53.0139C31.1454 53.2788 30.8202 53.4036 30.5209 53.226C30.2561 53.0723 30.1165 52.6753 30.3034 52.4086C30.5418 52.0773 30.4755 51.6938 30.4755 51.3023C30.4681 51.2095 30.489 51.1222 30.5209 51.0503C30.296 50.9766 30.084 50.8838 29.8781 50.7707C29.9174 51.003 29.9438 51.2359 29.9236 51.5064C29.8701 52.1308 29.7115 52.7281 29.3219 53.2389C28.9224 53.7631 28.5438 54.2794 28.1069 54.771C28.0276 54.8564 27.9348 54.9302 27.8401 54.996C28.2396 54.9302 28.6366 54.8903 29.0078 55.0759C29.4331 55.2873 30.9997 54.8294 31.5694 54.8503C32.5116 54.8847 32.2995 54.366 32.4851 53.7158ZM33.0696 17.7282C35.9287 17.1911 31.138 14.8231 31.0452 14.2804C31.1245 14.7567 29.1947 14.4716 28.9169 13.7826C28.9224 13.7961 29.0017 14.0739 28.5045 13.9074C28.2451 13.8226 28.1732 14.0874 27.8002 14.2595C26.858 14.7112 25.4334 14.5773 24.8225 13.7562C24.0998 12.7937 22.7188 14.9368 21.9371 15.1482C20.5954 15.5194 20.1775 15.9048 19.2771 16.4345C18.6583 16.7941 17.9355 16.0775 17.4057 16.9453C17.1199 17.416 16.9534 17.6889 16.3972 17.8401C15.4815 18.0933 15.3094 18.0933 15.0636 18.9826C14.8706 19.6974 13.9094 20.0698 15.5552 20.4674C15.8601 20.5412 15.9793 20.7735 15.9719 21.012C16.0248 21.0046 16.0776 20.9991 16.1305 20.9855C16.1587 20.7471 16.3179 20.5068 16.5638 20.4674C17.1599 20.3691 17.7179 20.1552 18.2477 19.8639C18.5919 19.6654 18.9176 19.8504 19.0633 20.1306C20.0718 19.1547 21.6039 18.5831 23.0249 18.6096C23.0648 18.4848 23.1441 18.3656 23.3033 18.2863C24.0789 17.9003 24.817 17.609 25.6246 17.7153C26.1617 16.9852 27.1518 16.9397 28.1523 17.2648C29.0416 17.5488 29.5333 18.2715 30.328 17.802C30.6137 17.6361 31.0132 17.7547 31.2836 17.8739C31.484 17.9612 31.6223 18.046 31.7415 18.1388C31.8153 18.1332 31.8872 18.1259 31.9744 18.1462C32.1994 18.1462 32.4261 18.1462 32.6517 18.1462C32.6972 17.9612 32.8711 17.7682 33.0696 17.7282ZM34.131 21.3641C34.2693 21.2559 34.3885 21.216 34.5151 21.216C34.2902 20.9118 33.938 21.1103 33.1888 20.9646C32.5116 20.8325 31.7225 20.036 31.35 19.4669C30.8067 18.6384 30.6611 19.3796 29.9119 19.3132C29.0152 19.2395 26.858 17.4695 26.501 18.5438C26.402 18.8425 26.0898 19.0674 25.7702 18.9617C25.3597 18.8351 24.9682 18.888 24.5896 19.0219C25.1212 19.4269 25.4789 20.1153 25.863 20.6069C26.1887 19.8301 27.1248 19.7766 27.9194 19.8639C28.3717 19.9112 29.0754 19.9241 29.4202 20.2874C29.7115 20.6069 30.6402 20.189 31.0526 20.3009C31.8945 20.5332 33.2681 22.0598 34.131 21.3641ZM32.5251 29.7655C32.8766 29.1564 33.6522 29.0562 34.3621 29.0827C33.6658 28.8977 32.3585 28.9186 32.0009 29.382C31.6886 29.7925 31.1454 29.9136 30.6936 29.6469C29.4657 28.9296 28.8296 27.8025 28.7503 26.4498C28.7104 26.4443 28.6766 26.4369 28.644 26.4314C28.4719 26.5954 28.2206 26.6753 27.9483 26.5297C27.8346 26.4688 27.7283 26.4025 27.6226 26.3386C27.6625 26.4369 27.6889 26.5426 27.6625 26.6692C27.3048 28.7914 28.9224 30.0439 30.1295 31.4906C30.5683 30.8877 31.3629 30.3297 31.9953 30.3297C32.1539 30.3297 32.2786 30.337 32.385 30.3426C32.3923 30.1305 32.4261 29.932 32.5251 29.7655ZM34.8064 23.4519C34.9066 22.841 34.9257 22.5496 34.8937 22.4304V22.423C34.8329 22.2374 34.6417 22.5177 34.4358 22.6369C33.1016 23.4181 31.4901 21.3826 30.1903 21.5626C29.2875 21.6874 27.1438 20.5541 26.9981 21.4489C26.8789 22.211 26.1353 22.9338 26.9053 23.5317C27.3313 23.8569 27.5488 24.4204 27.8875 24.8912C27.9876 24.9103 28.0804 24.9447 28.1732 25.0104C28.8241 25.5212 29.4995 24.9914 30.1239 25.3362C30.8202 25.7197 30.7803 26.0454 31.1325 25.5476C31.3045 25.3153 31.5239 25.2243 31.8097 25.2753C32.1729 25.3435 32.8502 25.6275 33.136 25.3435C33.2608 25.2243 33.4408 24.9785 33.6467 24.9447C34.3357 24.8175 34.6872 24.1482 34.8064 23.4519ZM35.6165 34.9464C35.5636 34.8936 35.5101 34.8407 35.4628 34.7743C35.2852 34.4812 33.6258 34.9599 33.1225 34.1899C33.3609 34.5549 32.0009 34.515 31.3445 34.2827C31.291 36.3649 28.5309 36.3913 27.059 37.4736C25.9632 38.283 24.4648 38.2166 23.1496 38.6616C23.1367 38.7408 23.1103 38.8336 23.0439 38.9185C21.8049 40.5434 23.0968 42.8659 24.5576 43.7005C25.5318 44.2506 26.0369 43.9857 27.0055 43.9857C27.3632 43.9857 27.7627 43.9937 28.1732 44.033C27.7817 43.8271 27.3368 43.3164 27.0055 43.2765C25.8704 43.1382 25.1003 42.2157 25.2275 41.1279C25.3523 40.0665 26.2699 39.5884 27.0774 39.117C27.8819 38.6462 29.4067 39.4765 29.9709 38.5669C30.1368 38.302 30.4816 38.0771 30.7858 38.0507C31.7888 37.9634 33.2208 37.4527 34.0781 36.8891C34.7745 36.4257 35.0996 35.5444 35.6165 34.9464ZM36.2273 48.8415C36.22 48.8016 36.22 48.7678 36.2144 48.7223C36.0553 47.7728 34.9675 47.3622 34.2502 46.9253C32.8902 46.1023 30.7274 46.8515 29.5659 45.8374C28.6176 45.0071 27.2176 45.5787 26.0898 45.433C25.1083 45.3058 24.0598 44.9678 23.2633 44.3452C22.0163 43.3637 21.1461 41.5249 21.3735 39.8815C20.1929 41.3399 21.2069 41.858 21.3845 43.2574C21.5265 44.4171 23.7476 47.09 25.0554 47.3167C26.0695 47.4944 26.6995 48.2909 27.7473 48.4894C28.9433 48.7088 29.6851 49.2988 30.7612 49.823C31.5559 50.2071 32.0463 50.035 32.6781 50.3466C31.7624 49.5637 31.2437 48.8016 29.5868 48.7088C28.5838 48.6485 27.4634 47.5816 26.5403 47.1766C25.8311 46.8644 26.442 45.8374 27.1383 46.1423C29.3139 47.09 31.6487 47.4759 33.3536 49.1795C33.7524 49.5692 35.4308 50.22 36.0288 49.6165C36.0288 49.6165 36.0288 49.6165 36.0288 49.611C35.8623 49.2988 35.9944 49.0001 36.2273 48.8415ZM36.2464 51.9642C36.4394 51.5402 36.4468 51.1831 36.4468 50.7781C35.7959 51.3816 34.8593 51.6065 33.8378 51.1222C33.785 51.1751 33.7321 51.2224 33.6922 51.2759C33.6867 51.2888 33.6867 51.2814 33.6867 51.2888C33.938 51.6938 34.0781 52.1381 34.0781 52.628C34.0781 52.9193 33.9515 53.583 33.785 54.1939C34.4942 53.816 35.1795 53.3181 35.5292 52.8265C35.7566 52.5014 36.0688 52.344 36.2464 51.9642ZM39.4988 65.0512C39.6371 64.9983 39.7563 64.8318 39.8755 64.6332C38.623 64.8391 37.3416 64.9719 36.0608 65.0512C36.1407 65.2687 36.2538 65.6473 36.3785 65.6676C36.7172 65.7266 37.0564 65.7075 37.3951 65.7075C38.2309 65.7075 38.7416 65.3216 39.4988 65.0512ZM39.8356 28.3734C39.6844 28.3206 39.5307 28.2677 39.3906 28.1884C39.2056 28.0883 37.9058 27.352 38.5566 27.199C38.3028 27.2598 37.9642 27.199 37.7792 27.0214C37.3477 26.6034 37.0902 26.2249 36.9691 25.6349C36.9575 25.5421 36.9636 25.4554 36.9821 25.389C36.9821 25.3964 36.9765 25.3964 36.9765 25.4019C36.585 26.0128 35.5236 25.8598 34.9521 25.5212C34.6343 25.7012 34.2902 25.8733 33.978 26.1911C33.2288 26.9341 32.6972 26.7147 31.8945 26.5162C31.5295 26.974 31.2173 27.1461 30.4152 26.8413C30.2622 26.7811 30.1165 26.7411 29.9709 26.7018C30.084 27.3784 30.4226 27.7361 30.9923 28.3206C31.299 28.6254 31.0261 28.6174 31.3838 28.2868C31.5166 28.162 31.696 28.0293 31.8761 27.9764C32.5644 27.7496 33.4408 27.6968 34.1556 27.7705C34.8408 27.8424 35.775 28.3661 35.378 29.1755C35.9477 29.0698 35.9096 28.6119 36.2673 28.3261C36.3257 28.2812 36.3921 28.2413 36.4658 28.2014C36.7172 28.0821 37.0503 28.0219 37.3078 28.0028C38.1442 27.9426 39.0274 28.8448 39.8356 28.3734ZM40.4391 57.3437C41.3548 57.2773 42.0456 57.1716 42.0794 57.0843C41.7807 57.0524 41.4949 57.005 41.2036 56.9669C41.1028 56.9596 41.0106 56.9596 40.897 56.9522C38.218 56.8932 35.5974 55.9172 32.8957 55.8982C32.8711 55.8982 32.8502 55.8853 32.8293 55.8853C32.506 56.0518 32.1275 56.0438 31.5958 56.0438C30.8331 56.0438 29.6187 56.6811 28.8351 56.2958C28.1259 55.9381 26.7124 56.3222 25.8894 56.1895C24.9282 56.0309 23.0249 56.2958 23.0249 56.2958C22.567 56.2958 22.2757 56.144 22.1356 55.9572C20.8947 55.9455 19.7479 55.8379 18.6656 56.1047C18.1949 56.1704 17.6042 56.203 17.1255 56.1975C16.3843 56.1501 16.1514 56.5207 16.4236 57.3093C17.8562 57.7216 19.4418 57.5895 20.9156 57.5895C25.5717 57.5895 30.2296 57.5022 34.8857 57.5022C36.7571 57.5022 38.5757 57.4758 40.4391 57.3437ZM42.3105 17.7098C42.7813 17.6889 42.3763 17.4431 42.2042 17.1573C42.0057 16.826 41.7807 16.7541 41.7537 16.3153C41.7463 16.2287 41.7672 16.1567 41.7992 16.083C41.7807 16.0566 41.7537 16.0431 41.7254 16.0031C41.6615 15.9711 41.6006 15.9318 41.5343 15.8974C41.4212 15.839 41.3093 15.7837 41.1883 15.7517C40.865 15.7124 40.6923 15.466 40.6376 15.2146C40.4256 15.4604 40.0212 15.4795 39.7692 15.249C39.7237 15.2091 39.6764 15.1691 39.6291 15.1279C39.5178 15.1882 39.3722 15.2091 39.2056 15.1482C38.9727 15.0689 38.7686 14.9688 38.5695 14.8366C38.3108 14.6719 38.3901 14.7174 38.1362 14.8305C37.9451 14.9159 37.773 14.9761 37.5536 14.9761C37.4534 14.9761 37.3551 14.9423 37.2623 14.9368C37.0503 15.4057 36.1671 15.3148 36.1136 14.6566C36.0817 14.2724 36.3201 13.8889 36.7172 13.7888C36.8708 13.7562 37.0294 13.7298 37.1886 13.7298C37.2758 13.7298 37.6464 13.7298 37.5407 13.7961C37.7921 13.6431 38.0852 13.4974 38.3901 13.503C38.2635 13.0132 37.6538 12.5344 37.9721 11.9917C38.4564 11.1688 35.7093 11.4355 35.2987 11.4411C34.9128 11.4466 31.9873 11.3009 31.8945 11.666C31.7016 12.4096 30.5474 12.0974 30.7403 11.3482C30.8657 10.8511 31.098 10.4786 31.4029 10.2346C30.9788 10.2193 30.489 10.5069 30.0631 10.6716C29.6661 10.8375 27.5623 10.3932 27.9403 10.3194C27.6945 10.3723 25.5397 10.2611 25.5717 10.2137C25.1274 10.8775 23.8804 11.7459 23.3371 12.0636C22.8528 12.3488 22.4613 12.3568 21.9162 12.3961C21.36 12.5215 20.8812 12.7747 20.4842 13.1643C20.2058 13.3174 20.2383 13.5632 20.5426 13.8963C21.5111 13.4176 22.5068 12.9867 23.4698 12.4834C25.1612 11.6058 26.1961 14.2933 27.7418 12.7409C27.8875 12.6008 28.1259 12.5215 28.3263 12.5872C28.4455 12.6081 28.5703 12.629 28.6975 12.6481C28.8622 12.5344 29.1209 12.5479 29.293 12.6481C30.1823 13.1852 29.7589 13.3782 30.7465 13.1717C31.2308 13.066 31.7753 13.0052 32.0801 13.5294C32.4587 14.1667 33.8243 14.286 34.3092 15.1144C34.6288 15.6534 35.0394 16.3817 35.166 17.0719C35.5236 17.3712 35.6165 17.6225 35.8223 17.1856C35.9551 16.8979 36.2593 16.807 36.5451 16.7996C36.9163 16.7867 37.2623 17.1573 37.4872 17.4031C37.7921 17.7282 38.1836 18.0275 38.1836 18.4375C38.1836 18.451 38.1836 18.4584 38.1836 18.4719C38.1897 18.419 38.1971 18.3656 38.2045 18.3109C38.3237 17.6416 39.4115 17.8081 39.3777 18.4719C39.3777 18.5247 39.3642 18.5776 39.3586 18.6304C39.3722 18.7441 39.3722 18.8634 39.3513 18.9746C40.1023 19.1547 39.7827 20.3009 39.0391 20.1233C38.596 20.0169 38.3501 19.7373 38.237 19.3931C37.467 19.3003 37.1302 18.7632 36.6434 18.2469C36.6324 18.2334 36.6324 18.2261 36.6188 18.2125C36.5986 18.2469 36.5777 18.2789 36.5531 18.3109C36.3601 18.4848 36.1591 18.6384 35.8942 18.6495C35.4763 18.663 35.1795 18.5383 34.8992 18.3508C34.7874 18.4909 34.6417 18.6175 34.4487 18.7288C34.2502 18.8425 33.9645 18.9033 33.7051 18.9033C33.6867 18.9353 33.6393 18.9826 33.5674 19.0619C33.3935 19.2284 33.1944 19.3194 32.983 19.3667C33.6393 19.7975 33.5674 19.6181 34.2238 19.6181C35.4235 19.6181 35.6828 20.3273 35.8678 21.3432C36.6588 20.7796 37.6145 20.6069 38.623 20.3802C39.2849 20.2364 39.7956 20.5467 40.3936 20.5148C40.4655 20.422 40.5528 20.3408 40.6984 20.3009C41.2958 20.1306 40.9234 19.0938 40.9234 18.7177C40.9178 18.3717 41.2301 17.8739 41.5742 17.7811C41.8336 17.7153 42.0511 17.7209 42.3105 17.7098ZM44.3798 37.7913C44.8112 36.8836 43.3528 36.3784 42.6756 35.9678C41.7672 35.4233 41.2565 34.9519 40.4127 34.9728C40.479 35.3041 40.3008 35.7085 39.862 35.7294C39.5707 35.7484 39.3113 36.2327 39.1792 36.5904C39.245 36.6642 39.3058 36.7299 39.3513 36.8172C39.4176 36.9229 39.4515 37.3408 39.5516 37.3863C39.9413 37.5793 40.3598 37.6248 40.7642 37.7913C40.7722 37.7913 40.7722 37.7987 40.7722 37.7987C41.4605 37.8251 42.2835 38.5079 42.4955 38.1508C42.5957 37.9769 42.8022 37.8442 43.0062 37.8577C43.1008 37.8577 43.1863 37.8786 43.2711 37.8841C43.3848 37.6666 43.6103 37.5191 43.9164 37.6248C44.0491 37.6721 44.2077 37.7305 44.3798 37.7913ZM42.3578 62.7495C42.9343 62.5566 45.4492 60.3625 44.5789 59.4333C44.4462 59.2937 44.4007 59.1346 44.4142 58.9889C44.3534 58.9944 44.295 59.008 44.2421 59.008C42.721 59.1272 41.2092 59.0289 39.6899 59.1954C39.457 59.2218 39.3058 59.1217 39.2185 58.976C36.5924 59.1874 33.7186 59.0952 33.2288 59.0952C29.4331 59.0952 25.6454 59.0952 21.8578 59.0952C20.8228 59.0952 19.3036 59.2274 17.9164 59.0952C17.7898 59.2138 17.6122 59.2937 17.3928 59.2538C16.2306 59.0608 15.0955 58.9416 13.9229 58.8285H13.9149C13.8491 58.9023 13.7637 58.968 13.6426 59.008C12.3637 59.4068 13.6709 61.363 13.9229 61.8602C14.6321 63.2676 16.2571 63.6192 17.6368 63.6327C18.9121 63.6438 20.1775 63.7175 21.4454 63.7175C24.0598 63.7175 26.6669 63.8029 29.2746 63.8029C32.5853 63.8029 36.0006 64.0617 39.2849 63.578C40.3862 63.4133 41.302 63.0876 42.3578 62.7495ZM44.0018 57.8353C44.1868 57.8218 44.8321 57.576 44.9913 57.6424C44.6053 57.4832 44.2077 57.3566 43.7972 57.2718C43.8236 57.4832 43.7498 57.6762 43.5913 57.8409C43.729 57.8409 43.8691 57.8482 44.0018 57.8353ZM47.6967 39.7488C47.6438 39.4236 49.6548 38.6407 48.2074 38.4342C47.9561 38.8865 47.5056 38.9584 47.0348 38.7992C46.8228 38.9793 46.497 39.0322 46.2383 38.7937C46.0736 38.6407 45.939 38.5878 45.7595 38.527C46.0054 38.7408 46.1983 38.9867 46.2383 39.2891C47.379 40.5434 47.8706 40.6964 47.6967 39.7488ZM48.2357 25.2753C50.796 26.1456 48.0224 24.182 47.5191 23.796C47.1596 23.5182 47.1331 23.0413 46.902 22.7881C46.6962 22.5705 46.4897 22.2848 46.5825 21.9596C46.5825 21.9406 45.2752 21.5417 44.9514 21.3887C43.9299 20.9192 44.2077 20.7999 43.4776 21.224C42.6885 21.6874 41.6271 21.2959 40.8115 21.8877C39.9677 22.5042 39.0335 21.0839 38.0459 21.8804C37.3213 22.4513 36.8444 21.8275 36.0553 22.7881C36.0288 22.8145 36.0006 22.8281 35.9815 22.8489C36.0079 23.2988 35.9625 23.7641 35.9287 24.1082C35.9096 24.2539 35.8813 24.3805 35.8488 24.4942C36.2673 24.4131 36.7571 24.0099 37.1222 24.0099C37.5198 24.0099 37.9377 24.4204 38.21 24.6798C38.3956 24.8574 38.4429 25.1825 38.3028 25.4019C37.8585 26.0982 42.6018 28.6383 42.0186 26.7546C41.9393 26.4897 42.072 26.2249 42.297 26.0792C43.1463 25.5347 43.8297 25.9262 44.7528 25.8334C45.4227 25.767 45.6741 25.7461 46.3176 25.979C46.942 26.1984 46.9948 26.5088 47.0612 25.9317C47.0876 25.6803 47.2198 25.4081 47.4982 25.3546C47.6703 25.3226 48.0298 25.2034 48.2357 25.2753ZM54.5837 42.8776C54.9088 42.5808 53.4486 42.0436 53.3029 42.0092C53.051 41.9637 52.8524 41.6859 52.866 41.4401C52.9397 39.9399 52.2016 39.6031 50.8563 39.2645C50.7881 39.2516 50.7352 39.2516 50.6768 39.2516C50.6504 39.2516 50.624 39.2516 50.5969 39.2442C50.0862 39.2891 49.7211 39.8416 49.2842 40.1273C49.0838 40.2595 48.8663 40.2183 48.6788 40.112C48.8527 40.2921 49.0303 40.6098 48.7526 40.9687C48.4668 41.3319 48.1417 41.4929 47.6438 41.4721C45.8597 41.4057 45.5684 40.2712 44.6865 39.4427C44.5863 39.4765 44.4726 39.482 44.3478 39.4427C43.9035 39.2891 43.4585 38.8994 43.1936 39.2516C43.0197 39.4765 42.8077 39.5884 42.5219 39.522C41.5607 39.3099 41.1483 39.0113 40.3272 39.5484C39.7901 39.8944 38.9008 39.522 38.867 40.5244C38.8608 40.7893 38.6949 41.0351 38.43 41.1015C37.8714 41.2416 37.0902 40.9085 36.6324 41.2791C36.413 41.453 35.032 42.2477 35.378 42.2477C35.7357 42.2477 39.4441 42.4087 39.2185 43.2838C39.8485 40.8366 43.504 44.5099 44.4861 43.1234C44.6865 42.845 44.9913 42.7584 45.3035 42.9114C45.502 43.0042 45.5739 43.0644 45.6004 43.097C45.7669 43.0571 45.9789 43.078 46.1455 43.1179C46.6562 43.2574 47.1934 43.1972 47.7311 43.3693C48.2947 43.5414 52.2624 43.29 52.5212 42.9852C52.6539 42.8248 52.9133 42.7713 53.0983 42.8321C53.802 43.038 54.1203 43.8874 54.2924 43.2691C54.3379 43.097 54.4571 42.9987 54.5837 42.8776ZM54.5438 37.4471C56.1902 38.7808 54.9224 36.7643 54.6894 36.4048C53.9747 35.3834 54.0669 35.9943 53.5033 35.703C52.9643 35.4307 52.7387 34.9519 52.1352 34.9071C51.0818 34.8143 50.0862 33.5335 49.3032 32.9226C49.0592 32.7314 48.8527 32.1414 49.0439 31.8483C48.7526 32.2797 47.8577 32.166 47.4791 31.75C47.6647 31.954 46.4706 31.9485 46.4706 31.9485C46.2248 31.8747 45.502 30.8877 45.1824 31.3056C44.8174 31.7819 44.1284 31.6443 44.0756 31.0198C43.8426 30.9141 43.6177 30.8404 43.3922 30.7341C43.0806 30.927 42.5957 30.8213 42.5164 30.4427C42.4297 30.0119 42.3443 29.2756 42.265 29.2554C42.257 29.2756 42.265 29.3021 42.257 29.3211C42.1648 29.8927 41.1956 29.9056 41.1108 29.3211C41.0973 29.2283 41.0899 29.1361 41.0973 29.0433C41.0236 29.1699 40.8779 29.5614 40.7912 29.7526C40.6923 29.972 40.3408 30.0592 40.1343 30.1176C39.5707 30.2707 37.408 29.0827 37.3078 29.2154C37.1886 29.374 37.0294 29.4748 36.8573 29.5012C36.8444 29.5805 36.8309 29.6807 36.8044 29.8189C36.778 30.0322 36.5715 30.1705 36.3921 30.2369C35.2987 30.6548 33.745 29.6997 33.573 31.16C33.541 31.4113 33.4138 31.6707 33.136 31.7291C32.7236 31.8219 30.328 31.4304 31.4901 32.8034C32.2866 33.7455 32.4059 33.0947 33.1489 32.9035C33.3536 32.8507 33.5803 32.9035 33.7321 33.0572C34.3221 33.6791 36.9372 34.0706 37.7921 33.8985C38.1043 33.8322 38.3292 33.9913 38.4503 34.2108C38.6021 34.1769 38.7686 34.1315 38.9327 34.0516C39.4705 33.8057 40.248 33.5206 40.8441 33.6453C41.9719 33.8912 42.7413 34.7479 43.8297 35.1375C44.3478 35.325 45.0177 35.5161 45.3299 36.0133C45.4418 36.1854 45.5285 36.3464 45.5948 36.4921C45.8278 36.4257 46.0982 36.4786 46.2647 36.7434C46.4632 37.1349 46.7545 37.4263 47.1405 37.6192C47.1405 37.2277 47.5191 36.9493 47.8971 37.0477C48.189 37.1214 50.9282 38.0826 51.0738 37.9769C51.6245 37.5928 53.2046 37.3998 53.609 38.1693C53.2839 37.5455 54.0275 37.0292 54.5438 37.4471ZM38.9936 38.4815C38.7416 38.4815 38.5566 37.9708 38.4429 37.8122C38.2899 37.5793 38.0379 37.4072 37.9322 37.1405C37.7073 36.5978 38.1307 35.9943 38.3827 35.5444C37.9586 35.5708 37.5481 35.529 37.1222 35.4836C36.8899 35.4571 36.3865 36.5314 36.3785 36.5449C35.9477 37.3015 34.82 37.905 34.0443 38.1963C33.5465 38.3887 31.0925 39.0186 30.7858 39.522C29.9838 40.8157 27.4431 39.8815 27.2046 40.6172C27.3503 40.7757 27.496 40.9349 27.6545 41.0941C27.9483 41.3872 28.0804 42.0356 28.5703 41.7498C29.4202 41.2526 30.3224 40.9214 30.9868 40.9214C31.6487 40.9214 31.6487 42.1149 30.9868 42.1149C30.3489 42.1149 29.738 42.4935 29.0625 42.8586C29.4596 42.9188 29.8855 42.9249 30.2886 43.1898C31.2173 43.7927 32.0064 44.3379 32.8164 45.0735C32.9295 45.1792 32.9768 45.2929 32.9903 45.4121C33.6731 45.4785 34.3357 45.5842 34.8538 45.8964C35.7486 46.4336 37.175 46.8853 37.3287 48.077C37.3815 48.5029 37.3551 48.9153 37.2678 49.2914C37.3742 49.4051 37.4743 49.5163 37.5346 49.7437C37.6329 50.1408 37.6329 50.4794 37.6329 50.8838C37.6329 51.7786 37.4135 52.6489 36.7442 53.2843C36.188 53.816 35.6165 54.3531 34.9939 54.811C36.7706 54.9376 38.655 55.2025 40.2141 55.6659C40.248 55.6732 40.2879 55.6868 40.3272 55.6923C40.3672 55.6923 40.3991 55.6732 40.4391 55.6788C41.1956 55.7396 41.9184 55.8908 42.6756 55.9381C43.2182 55.9701 43.9563 55.9701 44.4726 56.1631C45.0841 56.388 46.3913 56.7266 46.2113 57.6288C46.1191 58.0941 45.8333 58.4253 45.4621 58.6447C47.1596 60.5665 43.8771 63.7974 42.0057 64.2282C41.7863 64.2811 41.5533 64.321 41.3284 64.3684C41.3229 64.5404 41.2491 64.7125 41.069 64.8318C40.825 65.0038 40.8914 65.4218 40.6984 65.6547C40.5055 65.8741 40.3272 66.0124 40.0494 66.1181C39.3457 66.3768 38.8006 66.8875 38.017 66.9011C37.2758 66.9146 36.5242 66.9674 35.815 66.7419C35.0049 66.4905 35.2114 65.4562 34.3092 65.3105C34.163 65.2822 34.0708 65.2177 33.9989 65.1304C31.8761 65.1759 29.7509 65.104 27.668 64.9774C26.4081 64.8981 25.1403 64.8981 23.8724 64.8981C23.8668 65.0702 23.7876 65.2306 23.5755 65.329C22.9056 65.6412 22.9984 66.3166 22.414 66.6552C21.977 66.9146 21.2125 66.7345 20.73 66.7419C20.132 66.748 19.2562 66.7818 18.7849 66.3166C18.3534 65.887 18.0228 65.5146 17.4985 65.1649C17.3394 65.0585 17.2601 64.911 17.2318 64.7654C16.0395 64.6597 14.8835 64.4212 13.7828 63.7384C12.3637 62.8626 11.2759 59.6981 12.5302 58.359C12.2574 58.166 12.038 57.9146 11.9458 57.5815C11.6864 56.6344 12.3502 55.8908 13.2001 55.6333C14.2671 55.3082 15.4421 54.9486 16.5564 54.8503C16.7758 54.8294 16.927 54.9222 17.0198 55.0568C19.3226 54.6125 22.3611 54.7636 22.3611 54.7636C22.4004 54.7636 22.4269 54.7845 22.4613 54.7901C22.8927 54.0354 23.9197 53.3052 24.4784 53.0066C25.2669 52.588 26.0898 52.2629 26.4739 51.3816C26.7333 50.8045 26.9244 50.2483 26.9717 49.63C26.1224 49.5108 25.5526 48.7352 24.7371 48.4703C23.409 48.0395 21.6384 46.5338 20.9021 45.3648C20.1849 44.2315 18.9176 41.4137 19.7743 40.0591C20.3649 39.117 21.1197 38.2621 22.1546 37.7778C22.6524 37.5455 23.2105 37.1933 23.7347 37.0292C24.1453 36.8965 25.7438 36.698 25.9103 36.6377C26.3227 36.4859 27.4296 36.0287 28.3773 35.4516C28.0276 35.317 27.668 35.0847 27.3632 34.8936C27.3104 34.8598 27.2575 34.8198 27.1911 34.7799C27.1838 34.7934 27.1782 34.8063 27.1702 34.8198C27.0645 35.0337 26.9453 35.2586 26.7333 35.3908C26.2754 35.6765 25.8046 35.5364 25.3523 35.317C24.9362 35.5819 24.3985 35.5764 23.8478 35.0583C23.7083 34.9255 23.6474 34.7934 23.621 34.6815C23.5626 34.7878 23.4889 34.88 23.377 34.9464C23.2443 35.0183 22.5596 35.0183 22.5596 34.9464C22.009 35.5708 21.4454 34.695 21.1068 35.0976C20.6354 35.6636 19.6004 35.8812 19.0706 35.2187C19.0577 35.2187 19.0577 35.2187 19.0442 35.2187C18.8113 35.2187 18.579 35.2641 18.3479 35.2451C18.1211 35.2322 17.9564 35.1793 17.7972 35.0583C16.9933 36.2008 15.2227 36.4122 14.3009 35.1056C13.8829 34.5094 12.9617 35.4971 12.1707 35.6028C11.1831 35.7355 10.2729 35.0976 9.33072 35.4627C8.49427 35.7884 7.45378 35.8148 6.57247 35.7958C5.7815 35.7822 4.36796 35.7085 4.06313 34.7878C3.99737 34.5813 4.04469 34.4093 4.03117 34.2108C3.99737 33.6337 3.99122 33.0228 4.30957 32.5047C4.52898 32.166 4.95243 32.0997 5.17798 31.769C5.41828 31.4113 5.98186 31.3511 6.20679 31.769C6.47168 32.2533 7.06967 31.0008 7.10962 31.1464C7.03033 30.9197 6.96949 30.6947 6.94859 30.4563C6.99039 29.7071 7.02234 29.6469 7.50664 29.0771C7.89874 28.6174 7.93254 27.9291 8.54159 27.5714C9.02036 27.2918 9.3172 27.3446 9.74864 26.9212C9.86787 26.8019 10.0344 26.7018 10.2145 26.6219C9.55013 26.1911 8.65529 24.7326 8.84643 23.9497C9.25144 22.3382 10.2274 22.3112 11.6729 21.8195C12.2635 21.621 12.9008 20.5467 13.631 20.441C13.5517 20.2954 13.4779 20.1362 13.4116 19.9567C13.1393 19.2395 13.8694 18.9881 13.8829 18.3717C13.8885 17.7282 14.1005 16.9324 14.8251 16.7332C15.932 16.429 15.7408 16.9852 16.4562 15.7653C16.5693 15.5667 16.8686 15.281 17.1126 15.2355C17.4985 15.1562 17.93 15.056 18.3215 15.1808C18.7191 15.3074 18.9778 14.9952 19.2243 14.7174C18.4462 14.1139 18.0885 13.0586 19.2427 12.4834C19.727 12.2376 20.132 11.5738 20.6298 11.4281C21.1934 11.269 22.5068 11.269 22.8399 10.7902C23.3696 10.0472 24.3118 9.95437 24.7488 9.30599C25.1741 8.66068 25.9632 8.7418 26.5612 9.00669C27.4431 9.40432 28.3054 8.69448 29.1553 9.0411C30.7539 9.67658 31.8681 8.0252 33.0358 10.0152C33.8778 10.0152 35.4179 10.6845 36.2409 10.0945C36.5715 9.85604 37.1222 10.0625 37.4479 10.1873C38.0705 10.4251 39.7354 11.1614 39.2984 12.1374C39.0729 12.629 39.5836 13.3438 40.1213 13.9135C40.9234 13.7562 41.3493 13.9811 41.9393 14.5637C42.0376 14.6645 42.0794 14.7702 42.0985 14.8815C42.7339 15.222 43.3 15.7782 43.107 16.3153C43.1992 16.469 43.3055 16.6884 43.3584 16.7603C43.5175 16.9926 43.7898 17.4222 43.7707 17.7209C43.7443 18.2525 43.4776 18.7497 42.9005 18.8425C42.5563 18.8953 42.072 18.7552 42.2306 19.0938C42.3898 19.4325 42.3763 19.6974 42.2515 20.036C42.2441 20.0569 42.2367 20.0759 42.2306 20.0968C42.3842 20.1024 42.5373 20.1097 42.6756 20.1153C42.8212 20.1153 43.3 19.631 44.0018 19.6974C44.6053 19.7582 45.3428 20.6069 45.9199 20.4674C46.2457 20.3875 46.6427 20.4275 46.9475 20.5541C47.9106 20.9646 47.7102 21.5946 48.1017 22.3776C48.4612 23.0868 49.1102 23.6448 49.589 24.2293C49.9196 24.6189 50.6424 25.8389 49.986 26.3576C49.7685 26.5235 49.6019 26.609 49.3088 26.609C48.5196 26.609 48.2154 26.2304 48.1681 26.762C48.1417 27.0404 48.0034 27.2463 47.7311 27.3391C46.7699 27.6513 46.132 26.8886 45.1689 26.9869C44.904 27.0134 43.4585 27.1799 43.3584 26.9605C43.4585 27.1934 43.4911 27.4977 43.2656 27.6833C43.0806 27.8363 42.8685 27.9611 42.6411 28.0821C43.0879 28.3132 43.3528 28.8313 43.504 29.3476C44.2212 29.1626 44.7658 29.4404 45.0497 30.0986C45.9126 29.9584 46.7545 30.7949 47.1878 30.4772C47.3525 30.3499 47.6174 30.377 47.7913 30.4772C48.4877 30.8668 49.144 30.8078 49.8877 30.9934C50.1526 31.0598 50.3191 31.3111 50.3247 31.5705C50.391 33.5808 53.9802 33.8776 55.3009 35.1978C56.2824 36.1799 56.7274 36.9493 56.103 38.1109C55.7453 38.7673 55.1817 38.9056 54.631 38.7728C54.4965 38.9264 54.3188 39.0641 54.073 39.1987C53.9273 39.2706 53.7872 39.3044 53.6489 39.3235C53.8929 39.6412 54.0859 40.0063 54.1996 40.4506C54.226 40.5299 54.2525 40.9484 54.0669 40.9484C54.4036 41.0406 54.7958 41.4001 55.108 41.5667C55.5449 41.7916 55.6851 42.2477 55.7981 42.6809C55.9499 43.2691 55.4331 44.1314 55.1737 44.6365C55.049 44.8879 54.7558 44.9617 54.5044 44.9143C54.3379 44.8824 52.8924 44.3772 53.1382 44.0994C52.826 44.4509 52.7258 44.5099 52.2889 44.663C51.5716 44.9223 50.6031 43.7608 49.9012 44.5099C49.7002 44.7214 49.2897 44.9279 48.9775 44.9352C48.149 44.9488 46.3385 44.7558 45.7405 44.2641C45.9789 44.4645 45.542 44.2979 45.156 44.1393C44.5918 44.663 43.9219 44.7293 43.0406 44.3588C42.662 44.1977 40.2141 44.1713 40.2141 44.1258C39.6635 45.068 37.7073 44.5044 37.1222 43.88C36.4056 43.097 35.4708 43.6815 34.5022 43.1972C32.0611 41.9772 36.3466 39.734 37.6145 39.9473C37.7128 40.4113 37.7656 40.2712 37.773 39.5294C37.7792 39.4765 37.7865 39.4236 37.7921 39.3708C37.8585 39.125 38.1571 38.873 38.2973 38.7144C38.4693 38.5214 38.7213 38.4876 38.9936 38.4815Z" fill="#424242"/>
<path d="M84.8125 19.6875C85.2917 19.6875 85.7083 19.9062 86.0625 20.3438C86.4167 20.7812 86.7083 21.3021 86.9375 21.9062C87.1875 22.4896 87.375 23.0938 87.5 23.7188C87.625 24.3229 87.6875 24.7917 87.6875 25.125C87.6875 26.4792 87.5417 27.7188 87.25 28.8438C86.9792 29.9479 86.6146 30.9583 86.1562 31.875C85.7188 32.7708 85.2188 33.5729 84.6562 34.2812C84.0938 34.9688 83.5312 35.5833 82.9688 36.125C82.4062 36.6458 81.875 37.0938 81.375 37.4688C80.875 37.8438 80.4583 38.1458 80.125 38.375C80.375 38.625 80.6979 39.0521 81.0938 39.6562C81.5104 40.2604 81.9062 41.0104 82.2812 41.9062C82.6562 42.7812 82.9792 43.8021 83.25 44.9688C83.5208 46.1354 83.6562 47.4062 83.6562 48.7812C83.6562 49.7812 83.4792 50.8438 83.125 51.9688C82.7917 53.0938 82.3021 54.2083 81.6562 55.3125C81.0312 56.4167 80.25 57.4688 79.3125 58.4688C78.3958 59.4688 77.3542 60.3542 76.1875 61.125C75.0208 61.875 73.7292 62.4792 72.3125 62.9375C70.9167 63.3958 69.4271 63.625 67.8438 63.625C66.6979 63.625 65.6354 63.5938 64.6562 63.5312C63.6979 63.4688 62.8542 63.3958 62.125 63.3125C61.2917 63.2292 60.5104 63.125 59.7812 63L59.5938 62.6875C59.8229 62.2292 60.1875 61.3438 60.6875 60.0312C61.2083 58.6979 61.8021 57.1042 62.4688 55.25C63.1354 53.375 63.8542 51.3125 64.625 49.0625C65.4167 46.8125 66.1979 44.5312 66.9688 42.2188C67.7604 39.8854 68.5208 37.6042 69.25 35.375C69.9792 33.1458 70.625 31.1146 71.1875 29.2812C71.7708 27.4479 72.2396 25.9062 72.5938 24.6562C72.9688 23.4062 73.1771 22.5938 73.2188 22.2188C73.2188 22.1146 73.1979 22.0104 73.1562 21.9062C73.1354 21.8021 73.0938 21.7188 73.0312 21.6562C72.3646 21.7188 71.6979 21.8021 71.0312 21.9062C70.3854 22.0104 69.7917 22.1667 69.25 22.375C68.9792 22.4792 68.6875 22.6562 68.375 22.9062C68.0625 23.1354 67.7708 23.4271 67.5 23.7812C67.2292 24.1354 67 24.5312 66.8125 24.9688C66.6458 25.3854 66.5625 25.8125 66.5625 26.25C66.5625 26.5208 66.5833 26.8646 66.625 27.2812C66.6667 27.6771 66.75 28.0833 66.875 28.5L66.5 28.875C65.4375 28.1042 64.5938 27.3021 63.9688 26.4688C63.3438 25.6146 63.0312 24.8229 63.0312 24.0938C63.0312 23.6771 63.1667 23.2188 63.4375 22.7188C63.7292 22.2188 64.0833 21.7604 64.5 21.3438C64.9167 20.9062 65.3646 20.5417 65.8438 20.25C66.3229 19.9583 66.75 19.8125 67.125 19.8125C68.3958 19.8125 69.7083 19.8646 71.0625 19.9688C72.4375 20.0729 73.9896 20.125 75.7188 20.125C76.0938 20.125 76.4271 20.125 76.7188 20.125C77.0104 20.125 77.2917 20.125 77.5625 20.125C77.8333 20.1042 78.1042 20.0938 78.375 20.0938C78.6667 20.0729 79 20.0417 79.375 20L79.5625 20.3125C79.2917 20.9583 78.875 22.0729 78.3125 23.6562C77.7708 25.2188 77.1354 27.1146 76.4062 29.3438C77.1562 28.1979 77.9375 27.0521 78.75 25.9062C79.5833 24.7604 80.375 23.7292 81.125 22.8125C81.8958 21.8958 82.5938 21.1458 83.2188 20.5625C83.8646 19.9792 84.3958 19.6875 84.8125 19.6875ZM66 61.0312C66.4375 61.2812 66.8854 61.4583 67.3438 61.5625C67.8229 61.6667 68.2708 61.7188 68.6875 61.7188C69.875 61.7188 71.0417 61.4896 72.1875 61.0312C73.3542 60.5521 74.3854 59.875 75.2812 59C76.1979 58.1042 76.9375 57.0104 77.5 55.7188C78.0625 54.4062 78.3438 52.9062 78.3438 51.2188C78.3438 48.5938 77.9583 46.4479 77.1875 44.7812C76.4167 43.0938 75.4583 41.8229 74.3125 40.9688L74.1875 40.4688C74.5 40.3021 74.9479 40.0833 75.5312 39.8125C76.1146 39.5208 76.7396 39.1562 77.4062 38.7188C78.0938 38.2812 78.7917 37.7604 79.5 37.1562C80.2083 36.5312 80.8542 35.7917 81.4375 34.9375C82.0208 34.0833 82.4896 33.1146 82.8438 32.0312C83.2188 30.9271 83.4062 29.6667 83.4062 28.25C83.4062 28.125 83.3854 27.8542 83.3438 27.4375C83.3229 27.0208 83.2708 26.5938 83.1875 26.1562C83.125 25.6979 83.0208 25.2917 82.875 24.9375C82.7292 24.5833 82.5417 24.4062 82.3125 24.4062C82.2083 24.4062 82.0104 24.5521 81.7188 24.8438C81.4479 25.1354 81.1146 25.5312 80.7188 26.0312C80.3229 26.5104 79.875 27.0729 79.375 27.7188C78.8958 28.3438 78.3958 29.0104 77.875 29.7188C77.375 30.4062 76.8646 31.1042 76.3438 31.8125C75.8438 32.5208 75.375 33.1875 74.9375 33.8125L66 61.0312ZM108.219 19.4062C108.969 19.4062 109.708 19.5729 110.438 19.9062C111.188 20.2396 111.854 20.7188 112.438 21.3438C113.021 21.9688 113.49 22.7396 113.844 23.6562C114.198 24.5521 114.375 25.5729 114.375 26.7188C114.375 27.9688 114.229 29.3854 113.938 30.9688C113.667 32.5312 113.312 34.1458 112.875 35.8125C112.438 37.4792 111.948 39.1354 111.406 40.7812C110.885 42.4271 110.375 43.9375 109.875 45.3125C109.375 46.6667 108.927 47.8333 108.531 48.8125C108.156 49.7917 107.885 50.4479 107.719 50.7812C106.802 52.7396 105.812 54.5208 104.75 56.125C103.708 57.7083 102.583 59.0625 101.375 60.1875C100.188 61.3125 98.9062 62.1875 97.5312 62.8125C96.1771 63.4167 94.7292 63.7188 93.1875 63.7188C92.4375 63.7188 91.6562 63.5417 90.8438 63.1875C90.0521 62.8542 89.3229 62.375 88.6562 61.75C88.0104 61.1042 87.4792 60.3229 87.0625 59.4062C86.625 58.4896 86.4062 57.4688 86.4062 56.3438C86.4062 55.0938 86.5521 53.6875 86.8438 52.125C87.1146 50.5417 87.4688 48.9167 87.9062 47.25C88.3438 45.5833 88.8229 43.9375 89.3438 42.3125C89.8854 40.6667 90.4062 39.1667 90.9062 37.8125C91.4062 36.4583 91.8438 35.3021 92.2188 34.3438C92.6146 33.3646 92.8958 32.6979 93.0625 32.3438C93.9792 30.3854 94.9896 28.6146 96.0938 27.0312C97.2188 25.4271 98.4167 24.0625 99.6875 22.9375C100.979 21.8125 102.333 20.9479 103.75 20.3438C105.188 19.7188 106.677 19.4062 108.219 19.4062ZM93.9688 61.2812C94.7188 61.2812 95.5104 60.8438 96.3438 59.9688C97.1771 59.0938 98.0104 57.9271 98.8438 56.4688C99.6979 55.0104 100.531 53.3333 101.344 51.4375C102.177 49.5208 102.958 47.5312 103.688 45.4688C104.438 43.3854 105.125 41.2917 105.75 39.1875C106.396 37.0833 106.948 35.1146 107.406 33.2812C107.865 31.4479 108.219 29.8125 108.469 28.375C108.74 26.9167 108.875 25.8125 108.875 25.0625C108.875 24.0833 108.698 23.3229 108.344 22.7812C107.99 22.2396 107.479 21.9688 106.812 21.9688C106.042 21.9688 105.24 22.4062 104.406 23.2812C103.573 24.1562 102.729 25.3229 101.875 26.7812C101.042 28.2188 100.219 29.8958 99.4062 31.8125C98.5938 33.7083 97.8125 35.6979 97.0625 37.7812C96.3125 39.8438 95.625 41.9271 95 44.0312C94.375 46.1146 93.8333 48.0729 93.375 49.9062C92.9167 51.7188 92.5521 53.3438 92.2812 54.7812C92.0312 56.2188 91.9062 57.3125 91.9062 58.0625C91.9062 59.0625 92.0729 59.8542 92.4062 60.4375C92.7396 61 93.2604 61.2812 93.9688 61.2812ZM140.719 20.3125C140.51 20.8542 140.177 21.75 139.719 23C139.281 24.25 138.75 25.7396 138.125 27.4688C137.521 29.1979 136.844 31.1146 136.094 33.2188C135.365 35.3021 134.604 37.4688 133.812 39.7188C133.042 41.9479 132.26 44.1979 131.469 46.4688C130.698 48.7188 129.958 50.875 129.25 52.9375C128.562 55 127.927 56.8958 127.344 58.625C126.76 60.3542 126.281 61.8125 125.906 63H125.844C125.615 63.0417 125.365 63.0729 125.094 63.0938C124.615 63.1562 123.969 63.1875 123.156 63.1875C122.781 63.1875 122.354 63.1667 121.875 63.125C121.417 63.1042 120.948 63.0625 120.469 63L120.281 62.6875C120.385 61.3958 120.49 59.9062 120.594 58.2188C120.719 56.5312 120.833 54.7292 120.938 52.8125C121.062 50.8958 121.177 48.9062 121.281 46.8438C121.406 44.7604 121.521 42.6875 121.625 40.625C121.75 38.5625 121.854 36.5312 121.938 34.5312C122.042 32.5312 122.135 30.6458 122.219 28.875C121.302 31.9167 120.396 34.9688 119.5 38.0312C118.604 41.0729 117.729 44.0521 116.875 46.9688C116.042 49.8854 115.229 52.6979 114.438 55.4062C113.667 58.1146 112.927 60.6458 112.219 63C112.094 63.0208 111.938 63.0417 111.75 63.0625C111.583 63.0833 111.385 63.0938 111.156 63.0938C110.906 63.1146 110.625 63.125 110.312 63.125C109.958 63.125 109.583 63.1146 109.188 63.0938C108.792 63.0729 108.333 63.0417 107.812 63L107.875 62.5625C107.979 62.5625 108.115 62.4792 108.281 62.3125C108.448 62.125 108.615 61.8854 108.781 61.5938C109.344 60.4271 109.969 58.9896 110.656 57.2812C111.344 55.5521 112.062 53.6458 112.812 51.5625C113.562 49.4583 114.344 47.2188 115.156 44.8438C115.969 42.4688 116.781 40.0417 117.594 37.5625C118.427 35.0833 119.25 32.5938 120.062 30.0938C120.875 27.5938 121.677 25.1667 122.469 22.8125V22.2188C122.469 21.8646 122.365 21.6146 122.156 21.4688V21.0938C122.719 20.9271 123.208 20.7917 123.625 20.6875C124.062 20.5625 124.5 20.4688 124.938 20.4062C125.396 20.3229 125.885 20.2604 126.406 20.2188C126.927 20.1771 127.552 20.1458 128.281 20.125L128.406 20.3125C128.323 21.5208 128.219 22.9479 128.094 24.5938C127.969 26.2396 127.833 28.0312 127.688 29.9688C127.562 31.9062 127.417 33.9479 127.25 36.0938C127.104 38.2396 126.958 40.4167 126.812 42.625C126.688 44.8333 126.562 47.0417 126.438 49.25C126.312 51.4375 126.208 53.5417 126.125 55.5625C126.792 53.7708 127.5 51.8021 128.25 49.6562C129.021 47.4896 129.781 45.2812 130.531 43.0312C131.302 40.7604 132.031 38.5208 132.719 36.3125C133.427 34.0833 134.042 32.0312 134.562 30.1562C135.104 28.2604 135.531 26.6042 135.844 25.1875C136.177 23.75 136.344 22.6979 136.344 22.0312C136.344 21.6771 136.24 21.4271 136.031 21.2812V20.875C136.385 20.7708 136.771 20.6771 137.188 20.5938C137.604 20.5104 138.01 20.4375 138.406 20.375C138.823 20.3125 139.219 20.2604 139.594 20.2188C139.969 20.1771 140.292 20.1458 140.562 20.125L140.719 20.3125ZM149.938 31.375C150.062 31.2292 150.198 31 150.344 30.6875C150.49 30.3542 150.625 29.9792 150.75 29.5625C150.875 29.125 150.969 28.6562 151.031 28.1562C151.115 27.6354 151.156 27.1146 151.156 26.5938C151.156 25.5521 150.948 24.7917 150.531 24.3125C150.135 23.8125 149.688 23.5625 149.188 23.5625C148.917 23.5625 148.635 23.6458 148.344 23.8125C148.052 23.9792 147.792 24.2396 147.562 24.5938C147.333 24.9271 147.135 25.3542 146.969 25.875C146.823 26.3958 146.75 27.0208 146.75 27.75C146.75 28.125 146.833 28.7917 147 29.75C147.188 30.7083 147.417 31.8333 147.688 33.125C147.958 34.4167 148.24 35.8229 148.531 37.3438C148.844 38.8438 149.135 40.3438 149.406 41.8438C149.677 43.3438 149.896 44.7812 150.062 46.1562C150.25 47.5104 150.344 48.6875 150.344 49.6875C150.344 50.6875 150.167 51.7396 149.812 52.8438C149.479 53.9271 149.042 55 148.5 56.0625C147.958 57.1042 147.365 58.0938 146.719 59.0312C146.073 59.9688 145.448 60.8021 144.844 61.5312C144.24 62.2396 143.698 62.8021 143.219 63.2188C142.74 63.6354 142.396 63.8438 142.188 63.8438C141.833 63.8438 141.5 63.8229 141.188 63.7812C140.896 63.7396 140.573 63.6458 140.219 63.5C139.552 63.125 138.865 62.6458 138.156 62.0625C137.469 61.4792 136.812 60.8438 136.188 60.1562C135.542 59.4688 134.958 58.7708 134.438 58.0625C133.896 57.3333 133.458 56.6354 133.125 55.9688C133.604 55.3021 134.104 54.6562 134.625 54.0312C135.062 53.4896 135.552 52.9271 136.094 52.3438C136.615 51.7604 137.135 51.2396 137.656 50.7812H137.719C138.031 51.5938 138.427 52.4896 138.906 53.4688C139.385 54.4479 139.896 55.3646 140.438 56.2188C141 57.0729 141.573 57.7917 142.156 58.375C142.74 58.9375 143.292 59.2188 143.812 59.2188C143.917 59.2188 144.073 59.1875 144.281 59.125C144.51 59.0625 144.729 58.9271 144.938 58.7188C145.146 58.4896 145.323 58.1562 145.469 57.7188C145.635 57.2604 145.719 56.6354 145.719 55.8438C145.719 55.3021 145.615 54.3958 145.406 53.125C145.219 51.8542 144.969 50.4062 144.656 48.7812C144.344 47.1562 144.01 45.4479 143.656 43.6562C143.323 41.8646 143 40.1771 142.688 38.5938C142.375 37.0104 142.115 35.625 141.906 34.4375C141.719 33.2292 141.625 32.4062 141.625 31.9688C141.625 31.0521 141.812 30.1667 142.188 29.3125C142.583 28.4375 143.042 27.6354 143.562 26.9062C144.104 26.1562 144.656 25.5 145.219 24.9375C145.781 24.375 146.229 23.9375 146.562 23.625C147.062 23.2083 147.615 22.7604 148.219 22.2812C148.844 21.8021 149.458 21.3542 150.062 20.9375C150.688 20.5208 151.271 20.1771 151.812 19.9062C152.354 19.6146 152.802 19.4688 153.156 19.4688C153.51 19.4688 153.833 19.5521 154.125 19.7188C154.417 19.8646 154.667 20.1354 154.875 20.5312C155.104 20.9062 155.271 21.4375 155.375 22.125C155.5 22.7917 155.562 23.6562 155.562 24.7188C155.562 25.1979 155.479 25.6667 155.312 26.125C155.167 26.5625 154.969 27 154.719 27.4375C154.469 27.8542 154.188 28.2604 153.875 28.6562C153.562 29.0312 153.24 29.3854 152.906 29.7188C152.115 30.5104 151.229 31.2396 150.25 31.9062L149.938 31.375ZM180.938 20.3125C180.729 20.8542 180.406 21.75 179.969 23C179.552 24.25 179.052 25.7396 178.469 27.4688C177.885 29.1979 177.24 31.1146 176.531 33.2188C175.844 35.3021 175.125 37.4688 174.375 39.7188C173.625 41.9479 172.875 44.1979 172.125 46.4688C171.396 48.7188 170.698 50.875 170.031 52.9375C169.365 55 168.75 56.8958 168.188 58.625C167.625 60.3542 167.156 61.8125 166.781 63C166.24 63.0833 165.667 63.1354 165.062 63.1562C164.542 63.1979 163.938 63.2083 163.25 63.1875C162.583 63.1667 161.885 63.1042 161.156 63L160.969 62.6875C161.156 62.3333 161.427 61.7083 161.781 60.8125C162.135 59.8958 162.542 58.7917 163 57.5C163.479 56.2083 164 54.7604 164.562 53.1562C165.146 51.5312 165.74 49.8438 166.344 48.0938L160.906 48.2812C158.948 51.1354 157.042 53.8021 155.188 56.2812C153.333 58.7604 151.583 61 149.938 63C149.521 63.0417 149.052 63.0729 148.531 63.0938C148.094 63.1146 147.573 63.1146 146.969 63.0938C146.344 63.0938 145.656 63.0625 144.906 63L144.969 62.5625C145.073 62.5625 145.25 62.5 145.5 62.375C145.729 62.25 145.958 62.0729 146.188 61.8438C148.833 59.1354 151.5 56.1875 154.188 53C156.875 49.7917 159.458 46.4688 161.938 43.0312C164.417 39.5938 166.74 36.1146 168.906 32.5938C171.073 29.0521 172.969 25.5938 174.594 22.2188C174.594 21.9271 174.531 21.7188 174.406 21.5938C173.844 21.6354 173.25 21.6771 172.625 21.7188C172 21.7396 171.396 21.7812 170.812 21.8438C170.229 21.9062 169.677 21.9792 169.156 22.0625C168.656 22.1458 168.25 22.25 167.938 22.375C167.667 22.4792 167.375 22.6562 167.062 22.9062C166.75 23.1354 166.458 23.4271 166.188 23.7812C165.917 24.1354 165.688 24.5312 165.5 24.9688C165.333 25.3854 165.25 25.8125 165.25 26.25C165.25 26.5208 165.271 26.8646 165.312 27.2812C165.354 27.6771 165.438 28.0833 165.562 28.5L165.188 28.875C164.125 28.1042 163.281 27.3021 162.656 26.4688C162.031 25.6146 161.719 24.8229 161.719 24.0938C161.719 23.6771 161.854 23.2188 162.125 22.7188C162.417 22.2188 162.771 21.7604 163.188 21.3438C163.604 20.9062 164.052 20.5417 164.531 20.25C165.01 19.9583 165.438 19.8125 165.812 19.8125C166.458 19.8125 167.24 19.8333 168.156 19.875C169.094 19.8958 170.073 19.9271 171.094 19.9688C172.135 20.0104 173.177 20.0521 174.219 20.0938C175.26 20.1146 176.219 20.125 177.094 20.125C177.469 20.125 177.802 20.125 178.094 20.125C178.385 20.125 178.656 20.125 178.906 20.125C179.177 20.1042 179.448 20.0938 179.719 20.0938C180.01 20.0729 180.344 20.0417 180.719 20L180.938 20.3125ZM166.844 46.625C167.385 45 167.938 43.3542 168.5 41.6875C169.062 40.0208 169.604 38.3958 170.125 36.8125C170.646 35.2083 171.146 33.6771 171.625 32.2188C172.104 30.7604 172.542 29.4167 172.938 28.1875C171.292 31.375 169.521 34.5312 167.625 37.6562C165.729 40.7812 163.802 43.8333 161.844 46.8125L166.844 46.625ZM192.188 20.3125C191.979 20.8542 191.656 21.75 191.219 23C190.802 24.25 190.292 25.7396 189.688 27.4688C189.104 29.1979 188.458 31.1146 187.75 33.2188C187.062 35.3021 186.344 37.4688 185.594 39.7188C184.844 41.9479 184.094 44.1979 183.344 46.4688C182.615 48.7188 181.906 50.875 181.219 52.9375C180.552 55 179.938 56.8958 179.375 58.625C178.812 60.3542 178.344 61.8125 177.969 63C177.719 63.0417 177.448 63.0729 177.156 63.0938C176.906 63.1354 176.604 63.1562 176.25 63.1562C175.896 63.1771 175.51 63.1875 175.094 63.1875C174.198 63.1875 173.281 63.125 172.344 63L172.125 62.6875C172.375 62.2292 172.76 61.3438 173.281 60.0312C173.781 58.6979 174.365 57.1042 175.031 55.25C175.698 53.375 176.417 51.3125 177.188 49.0625C177.979 46.8125 178.771 44.5312 179.562 42.2188C180.354 39.8854 181.115 37.6042 181.844 35.375C182.573 33.1458 183.219 31.1146 183.781 29.2812C184.365 27.4479 184.844 25.9062 185.219 24.6562C185.594 23.4062 185.802 22.5938 185.844 22.2188C185.844 21.8646 185.74 21.6146 185.531 21.4688V21.0938C186.094 20.9271 186.604 20.7917 187.062 20.6875C187.542 20.5625 188.021 20.4688 188.5 20.4062C189 20.3229 189.531 20.2604 190.094 20.2188C190.656 20.1771 191.302 20.1458 192.031 20.125L192.188 20.3125Z" fill="#424242"/>
</g>
<defs>
<clipPath id="clip0_169_1870">
<rect width="200" height="80" fill="white"/>
</clipPath>
</defs>
</svg>
